<svg width="589" height="480" viewBox="0 0 589 480" fill="none" xmlns="http://www.w3.org/2000/svg">
<path fill-rule="evenodd" clip-rule="evenodd" d="M322.025 451.989C202.152 439.832 102.933 352.23 59.4577 240.567C15.9827 128.904 179.667 33.784 297.561 28.3344C415.456 22.8847 506.464 127.361 506.464 246.361C506.464 365.362 441.898 464.146 322.025 451.989Z" fill="#FFE5D2"/>
<path fill-rule="evenodd" clip-rule="evenodd" d="M469.509 333.392C469.607 333.336 470.218 334.141 471.122 335.725C472.029 337.305 473.158 339.704 474.208 342.8C476.359 348.97 477.709 358.078 476.909 368.012C476.115 377.944 473.813 386.662 472.037 392.868C470.22 399.077 468.883 402.845 468.653 402.782C468.398 402.712 469.301 398.812 470.792 392.543C472.244 386.275 474.317 377.603 475.093 367.874C475.874 358.148 474.763 349.296 472.978 343.176C471.245 337.026 469.223 333.541 469.509 333.392Z" fill="white"/>
<path fill-rule="evenodd" clip-rule="evenodd" d="M475.643 283.684C475.757 283.634 476.496 284.984 477.73 287.473C478.962 289.962 480.694 293.589 482.743 298.115C486.807 307.166 492.278 319.837 496.245 334.547C498.196 341.906 499.525 349.059 500.198 355.629C500.877 362.197 500.946 368.165 500.607 373.145C500.278 378.128 499.647 382.127 499.04 384.846C498.44 387.57 497.964 389.037 497.857 389.013C497.52 388.949 499.006 382.952 499.321 373.086C499.713 363.24 498.417 349.56 494.486 335.015C490.563 320.465 485.317 307.787 481.561 298.623C479.67 294.038 478.141 290.326 477.082 287.761C476.048 285.185 475.527 283.736 475.643 283.684Z" fill="white"/>
<path fill-rule="evenodd" clip-rule="evenodd" d="M248.58 342.027C248.791 342.253 246.726 344.217 244.047 347.864C243.381 348.78 242.659 349.782 241.983 350.927C241.244 352.029 240.601 353.294 239.886 354.6C238.555 357.262 237.292 360.288 236.318 363.582C235.387 366.887 234.843 370.119 234.55 373.08C234.462 374.564 234.332 375.977 234.369 377.302C234.332 378.63 234.409 379.863 234.483 380.992C234.807 385.501 235.51 388.26 235.21 388.34C235.029 388.402 233.873 385.738 233.203 381.123C233.042 379.971 232.889 378.704 232.859 377.334C232.756 375.964 232.83 374.5 232.877 372.957C233.086 369.883 233.6 366.511 234.569 363.079C235.579 359.658 236.94 356.531 238.404 353.816C239.186 352.484 239.903 351.204 240.722 350.101C241.476 348.955 242.283 347.963 243.033 347.072C246.061 343.521 248.461 341.879 248.58 342.027Z" fill="white"/>
<path fill-rule="evenodd" clip-rule="evenodd" d="M253.426 357.941C253.578 358.185 252.428 359.062 250.925 360.741C250.165 361.57 249.363 362.644 248.574 363.889C247.819 365.156 247.095 366.608 246.527 368.21C245.984 369.82 245.656 371.409 245.469 372.872C245.32 374.337 245.287 375.675 245.374 376.797C245.52 379.041 245.884 380.441 245.613 380.539C245.418 380.621 244.599 379.34 244.098 376.967C243.837 375.784 243.729 374.336 243.797 372.731C243.903 371.132 244.211 369.378 244.806 367.618C245.424 365.867 246.267 364.298 247.172 362.972C248.109 361.666 249.09 360.593 250.025 359.822C251.886 358.26 253.323 357.755 253.426 357.941Z" fill="white"/>
<path fill-rule="evenodd" clip-rule="evenodd" d="M186.155 209.63C186.249 209.548 187.064 210.348 188.462 211.873C189.172 212.628 190.011 213.578 190.899 214.751C191.796 215.913 192.875 217.203 193.887 218.753C194.409 219.519 194.958 220.32 195.528 221.155C196.092 221.996 196.604 222.916 197.174 223.845C198.34 225.69 199.385 227.773 200.522 229.946C202.669 234.354 204.722 239.357 206.357 244.781C207.939 250.22 208.944 255.534 209.544 260.396C209.774 262.838 210.031 265.154 210.057 267.333C210.085 268.422 210.156 269.472 210.141 270.484C210.118 271.494 210.094 272.463 210.073 273.388C210.068 275.242 209.865 276.907 209.746 278.37C209.638 279.835 209.453 281.087 209.267 282.104C208.925 284.144 208.678 285.257 208.553 285.24C208.232 285.197 208.837 280.678 208.786 273.375C208.769 272.462 208.753 271.508 208.736 270.511C208.715 269.516 208.609 268.482 208.549 267.413C208.459 265.27 208.149 262.998 207.88 260.604C207.197 255.836 206.164 250.635 204.611 245.296C203.004 239.973 201.039 235.046 199.013 230.673C197.936 228.519 196.956 226.443 195.866 224.596C195.332 223.665 194.857 222.741 194.334 221.894C193.805 221.049 193.299 220.238 192.815 219.463C188.878 213.305 185.907 209.84 186.155 209.63Z" fill="white"/>
<path fill-rule="evenodd" clip-rule="evenodd" d="M206.771 218.139C206.926 218.001 209.017 219.952 211.677 223.713C213.015 225.584 214.425 227.944 215.798 230.664C217.131 233.403 218.403 236.513 219.418 239.883C220.403 243.263 221.028 246.565 221.402 249.587C221.731 252.615 221.833 255.359 221.728 257.656C221.544 262.254 220.851 265.025 220.647 264.994C220.354 264.958 220.589 262.152 220.44 257.655C220.38 255.408 220.149 252.739 219.739 249.805C219.285 246.876 218.627 243.682 217.673 240.399C216.686 237.125 215.497 234.087 214.283 231.383C213.028 228.696 211.769 226.331 210.595 224.41C208.27 220.556 206.545 218.328 206.771 218.139Z" fill="white"/>
<path fill-rule="evenodd" clip-rule="evenodd" d="M134.576 366.745L132.991 363.517L88.8674 397.143L108.117 428.248L152.039 391.31L134.576 366.745Z" fill="#FF7B5B"/>
<path fill-rule="evenodd" clip-rule="evenodd" d="M90.7162 397.862L107.627 427.032L108.708 426.551L93.6488 399.277L90.7162 397.862Z" fill="#D7D4D4"/>
<path fill-rule="evenodd" clip-rule="evenodd" d="M133.704 366.106L90.7162 397.862C90.7162 397.862 90.8964 398.544 91.9632 398.964C93.0313 399.385 93.6488 399.278 93.6488 399.278L138.843 368.425C138.843 368.425 136.238 367.821 135.293 367.118C134.347 366.412 133.704 366.106 133.704 366.106Z" fill="#F5F3F3"/>
<path fill-rule="evenodd" clip-rule="evenodd" d="M139.949 367.181L92.8423 398.565L108.142 427.485L110.606 431.491L157.714 396.715C157.714 396.715 152.753 389.329 149.774 384.869C146.795 380.41 140.947 369.892 140.629 369.218C140.309 368.544 139.949 367.181 139.949 367.181Z" fill="#FF7B5B"/>
<path fill-rule="evenodd" clip-rule="evenodd" d="M528.423 150.515L529.753 147.804L566.806 176.042L550.641 202.162L513.758 171.143L528.423 150.515Z" fill="#775298"/>
<path fill-rule="evenodd" clip-rule="evenodd" d="M565.252 176.645L551.053 201.139L550.144 200.736L562.79 177.833L565.252 176.645Z" fill="#D7D4D4"/>
<path fill-rule="evenodd" clip-rule="evenodd" d="M529.155 149.977L565.253 176.645C565.253 176.645 565.1 177.217 564.206 177.57C563.309 177.923 562.789 177.833 562.789 177.833L524.838 151.926C524.838 151.926 527.026 151.42 527.82 150.827C528.614 150.235 529.155 149.977 529.155 149.977Z" fill="#F5F3F3"/>
<path fill-rule="evenodd" clip-rule="evenodd" d="M523.911 150.882L563.468 177.234L550.621 201.521L548.551 204.884L508.992 175.681C508.992 175.681 513.16 169.478 515.66 165.733C518.164 161.989 523.073 153.156 523.34 152.591C523.607 152.026 523.911 150.882 523.911 150.882Z" fill="#775298"/>
<path fill-rule="evenodd" clip-rule="evenodd" d="M81.8979 99.6916C81.8979 99.6916 79.1004 101.623 80.4985 104.843C81.8979 108.063 88.0309 117.614 96.3159 117.291C96.6552 117.279 85.8788 99.6916 85.8788 99.6916H81.8979Z" fill="#FF7B5B"/>
<path fill-rule="evenodd" clip-rule="evenodd" d="M69.2247 275.773C69.2247 275.773 58.8643 266.542 55.5474 268.195C51.495 270.216 28.3002 292.884 29.2066 303.563C29.579 307.936 34.6836 304.189 43.7797 294.778C52.8785 285.368 64.3347 289.401 64.3347 289.401L69.2247 275.773Z" fill="#775298"/>
<path fill-rule="evenodd" clip-rule="evenodd" d="M94.3947 291.341L81.8875 283.857C81.8875 283.857 49.4681 314.173 54.533 318.215C58.3747 321.28 60.6329 318.531 69.7303 309.12C78.8264 299.711 90.3515 305.121 90.3515 305.121L94.3947 291.341Z" fill="#775298"/>
<path fill-rule="evenodd" clip-rule="evenodd" d="M170.796 191.605L173.141 224.825L121.077 211.296L170.796 191.605Z" fill="#F3A683"/>
<path fill-rule="evenodd" clip-rule="evenodd" d="M121.078 212.439C121.078 212.439 166.62 215.302 172.684 213.284C172.684 213.284 181.584 300.492 165.748 309.9C149.91 319.312 114.371 305.532 114.371 305.532L123.967 286.712L144.656 285.368V251.761L143.172 252.097L121.078 212.439Z" fill="#112129"/>
<path fill-rule="evenodd" clip-rule="evenodd" d="M63.9916 271.925C63.9916 271.925 52.5366 276.631 56.2432 288.058C56.2432 288.058 95.3455 318.64 114.373 311.582C125.032 307.628 136.483 277.462 144.494 251.69L172.685 213.283C172.685 213.283 159.389 213.947 154.954 213.93C146.477 213.898 121.079 212.439 121.079 212.439C121.079 212.439 107.813 281.672 103.086 283.352C98.359 285.031 63.9916 271.925 63.9916 271.925Z" fill="#22343D"/>
<path fill-rule="evenodd" clip-rule="evenodd" d="M131.691 125.605C131.691 125.605 158.985 100.063 163.701 93.3403C168.417 86.619 178.529 64.1021 190.992 54.6922L184.928 41.921C184.928 41.921 188.636 39.9053 190.992 45.281C190.992 45.281 199.751 27.8068 201.774 28.1412C203.797 28.477 197.732 41.5853 197.732 41.5853C197.732 41.5853 206.157 29.4855 208.515 29.8226C210.871 30.1583 202.45 43.4239 202.45 43.4239C202.45 43.4239 211.882 32.5111 213.231 33.8554C214.579 35.1997 205.818 43.4239 205.818 43.4239C205.818 43.4239 215.252 38.0217 216.263 39.8022C217.274 41.5853 206.829 46.2895 206.829 46.2895C206.829 46.2895 205.818 54.0194 199.418 57.3794C199.418 57.3794 186.742 91.5374 175.286 102.627L138.484 140.777L131.691 125.605Z" fill="#FFC6B2"/>
<path fill-rule="evenodd" clip-rule="evenodd" d="M99.1099 138.843C99.1099 138.843 73.2489 165.827 66.4665 170.467C59.6829 175.107 37.0156 184.982 27.4663 197.328L14.7193 191.159C14.7193 191.159 12.6639 194.836 18.0323 197.238C18.0323 197.238 0.429797 205.812 0.749167 207.833C1.06589 209.853 14.2634 203.926 14.2634 203.926C14.2634 203.926 2.05448 212.216 2.36987 214.571C2.68527 216.925 16.0617 208.648 16.0617 208.648C16.0617 208.648 5.0335 217.954 6.36929 219.311C7.70243 220.668 16.0312 212.009 16.0312 212.009C16.0312 212.009 10.5264 221.367 12.3048 222.392C14.0806 223.416 18.895 213.043 18.895 213.043C18.895 213.043 26.6526 212.109 30.0835 205.754C30.0835 205.754 62.5201 192.881 73.7471 181.559L114.112 153.03L99.1099 138.843Z" fill="#FFC6B2"/>
<path fill-rule="evenodd" clip-rule="evenodd" d="M108.806 128.089L95.7266 140.86L99.0435 155.257C99.0435 155.257 111.93 186.115 113.878 193.642C116.906 205.348 112.008 223.196 112.008 223.196C112.008 223.196 133.854 221.387 153.731 220.715C173.608 220.043 180.111 213.656 180.111 213.656C180.111 213.656 162.876 156.403 150.978 140.399C139.077 124.397 134.749 119.388 134.749 119.388L117.229 123.208L108.806 128.089Z" fill="white"/>
<path fill-rule="evenodd" clip-rule="evenodd" d="M147.192 138.512L160.82 129.826C160.82 129.826 162.902 120.521 146.467 109.545L127.195 121.59L147.192 138.512Z" fill="white"/>
<path fill-rule="evenodd" clip-rule="evenodd" d="M98.4808 139.85C91.0094 140.896 77.356 159.783 75.8334 159.747C75.8334 159.747 85.4423 175.388 93.0542 175.896C93.0542 175.896 126.551 135.923 98.4808 139.85Z" fill="white"/>
<path fill-rule="evenodd" clip-rule="evenodd" d="M124.856 127.561C124.856 127.561 113.996 119.468 114.372 116.241C114.468 115.428 115.973 114.109 116.364 112.938C118.47 106.637 108.318 90.4013 102.08 86.9792C97.1727 84.288 99.3235 84.0501 88.9963 90.1713C78.6691 96.2926 84.5529 106.878 89.1646 112.352C93.5244 117.527 98.5178 119.744 103.01 120.118L109.398 134.269L124.856 127.561Z" fill="#FFC6B2"/>
<path fill-rule="evenodd" clip-rule="evenodd" d="M105.261 138.796C103.207 133.77 107.096 127.44 113.948 124.652C120.804 121.863 128.022 123.677 130.08 128.7C132.133 133.724 125.236 141.277 121.387 142.843C117.537 144.409 107.313 143.819 105.261 138.796Z" fill="#FFC6B2"/>
<path fill-rule="evenodd" clip-rule="evenodd" d="M89.1641 112.353C89.1641 112.353 85.6417 112.158 85.2508 114.499C84.8585 116.841 91.7071 116.841 94.2515 115.085L89.1641 112.353Z" fill="#FFC6B2"/>
<path fill-rule="evenodd" clip-rule="evenodd" d="M90.9268 114.499C90.2576 110.268 85.7373 107.122 85.9626 103C88.1293 103.017 89.5208 100.34 88.5348 98.0521C88.1465 97.1533 87.4892 96.384 87.0692 95.4971C86.6504 94.6115 86.5391 93.4509 87.1818 92.95C87.4866 92.7134 87.8987 92.6724 88.2936 92.6328C91.5059 92.3036 97.0094 93.2646 99.9659 92.1714C102.781 91.1312 105.797 89.1075 105.504 85.6682C105.248 82.673 102.596 80.2449 100.161 78.4102C98.7653 77.358 94.7778 74.6074 93.2737 74.8572C90.9771 75.2379 90.4206 78.2939 90.2549 80.8516C88.6488 79.3262 86.2793 79.5707 84.8826 80.8119C83.4859 82.0531 82.8246 84.0252 82.2163 85.9286C81.6067 87.8333 80.9614 89.8107 79.5832 91.0757C78.2991 92.2547 76.2676 93.1469 76.5339 95.1521C76.8506 97.5419 79.9807 98.3918 81.4278 100.43C81.0714 99.9304 80.7692 103.121 80.9746 103.662C81.5922 105.292 83.1334 106.37 84.2478 107.617C86.6212 110.273 87.7821 112.949 90.9268 114.499Z" fill="#FF7B5B"/>
<path fill-rule="evenodd" clip-rule="evenodd" d="M110.604 104.825L102.578 108.964C102.578 108.964 112.218 115.944 110.604 104.825Z" fill="white"/>
<path fill-rule="evenodd" clip-rule="evenodd" d="M99.5633 106.466C100.002 107.296 99.3526 108.496 98.1135 109.146C96.8745 109.797 95.5148 109.651 95.0762 108.821C94.6389 107.991 95.2869 106.792 96.526 106.141C97.7663 105.49 99.1246 105.636 99.5633 106.466Z" fill="#FFB2A0"/>
<path fill-rule="evenodd" clip-rule="evenodd" d="M111.28 98.4815C111.718 99.3116 111.069 100.512 109.83 101.162C108.591 101.812 107.231 101.667 106.793 100.837C106.355 100.007 107.003 98.8067 108.242 98.1563C109.483 97.506 110.841 97.6514 111.28 98.4815Z" fill="#FFB2A0"/>
<path fill-rule="evenodd" clip-rule="evenodd" d="M105 104.531C104.963 104.485 105.113 104.288 105.46 104.038C105.792 103.783 106.368 103.508 106.796 103.048C107.22 102.602 107.372 101.673 106.723 101.542C106.049 101.314 105.283 102.086 104.404 102.819C104.187 102.999 103.972 103.177 103.759 103.353C103.56 103.536 103.141 103.803 102.706 103.748C101.878 103.615 101.526 103.064 101.208 102.695C100.572 101.881 100.179 101.028 99.962 100.291C99.5313 98.7996 99.7248 97.8374 99.8282 97.8453C99.9726 97.8387 100.02 98.7639 100.568 100.075C100.843 100.727 101.255 101.467 101.856 102.166C102.149 102.52 102.517 102.851 102.779 102.862C102.889 102.867 102.975 102.83 103.182 102.657C103.393 102.481 103.605 102.302 103.82 102.123C104.262 101.766 104.645 101.405 105.151 101.069C105.643 100.739 106.344 100.53 106.972 100.743C107.643 100.918 108.036 101.698 107.92 102.24C107.844 102.793 107.569 103.2 107.256 103.497C106.595 104.048 106.004 104.182 105.631 104.349C105.25 104.493 105.04 104.583 105 104.531Z" fill="#FF7B5B"/>
<path fill-rule="evenodd" clip-rule="evenodd" d="M103.009 120.118C103.009 120.118 108.128 120.147 110.906 118.441C110.906 118.441 108.556 121.32 103.854 122.065L103.009 120.118Z" fill="#FFA192"/>
<path fill-rule="evenodd" clip-rule="evenodd" d="M105.229 97.2197C105.183 97.4721 104.467 97.5501 103.71 97.8832C102.943 98.1925 102.389 98.6512 102.176 98.5084C101.957 98.3934 102.319 97.4814 103.355 97.0465C104.39 96.609 105.296 96.9817 105.229 97.2197Z" fill="#22343D"/>
<path fill-rule="evenodd" clip-rule="evenodd" d="M95.1976 103.783C95.0041 103.641 95.3076 102.819 96.0444 101.995C96.7905 101.154 97.7433 100.874 97.844 101.109C97.95 101.338 97.3696 101.871 96.7163 102.61C96.0523 103.346 95.407 103.939 95.1976 103.783Z" fill="#22343D"/>
<path fill-rule="evenodd" clip-rule="evenodd" d="M91.3094 102.515C90.8946 102.208 90.5713 100.895 92.1589 99.1269C93.761 97.3186 95.5513 97.6372 95.766 98.1395C95.9966 98.6325 95.4003 99.3344 93.9942 100.925C92.567 102.509 91.7587 102.85 91.3094 102.515Z" fill="#FF7B5B"/>
<path fill-rule="evenodd" clip-rule="evenodd" d="M99.7372 95.5481C99.5079 95.1198 99.761 93.8734 101.826 93.005C103.919 92.1075 105.315 93.0975 105.295 93.6117C105.291 94.1232 104.503 94.4814 102.663 95.2718C100.811 96.0477 99.985 96.0147 99.7372 95.5481Z" fill="#FF7B5B"/>
<path fill-rule="evenodd" clip-rule="evenodd" d="M540.113 107.947C540.248 108.081 538.024 110.576 533.41 113.294C528.853 116.009 521.682 118.7 513.434 118.761C505.186 118.821 497.976 116.236 493.379 113.588C488.726 110.94 486.465 108.476 486.598 108.34C486.79 108.098 489.318 110.176 493.978 112.45C498.592 114.734 505.547 117.001 513.42 116.944C521.295 116.885 528.214 114.516 532.795 112.165C537.419 109.821 539.918 107.706 540.113 107.947Z" fill="#775298"/>
<path fill-rule="evenodd" clip-rule="evenodd" d="M489.795 104.177C489.669 104.454 487.207 103.434 483.059 102.512C480.992 102.025 478.483 101.65 475.69 101.304C472.886 100.994 469.786 100.749 466.513 100.516C463.238 100.287 460.104 100.024 457.258 99.6726C454.411 99.2958 451.854 98.8478 449.746 98.2794C445.516 97.1783 443.121 95.875 443.204 95.6913C443.314 95.4137 445.833 96.2716 450.022 97.0237C452.112 97.4215 454.634 97.7295 457.442 98.0084C460.257 98.2648 463.365 98.475 466.644 98.705C469.925 98.9376 473.064 99.2377 475.908 99.6448C478.751 100.09 481.301 100.608 483.386 101.269C487.575 102.545 489.889 104.004 489.795 104.177Z" fill="#775298"/>
<mask id="mask0_29_1016" style="mask-type:luminance" maskUnits="userSpaceOnUse" x="423" y="34" width="166" height="81">
<path fill-rule="evenodd" clip-rule="evenodd" d="M423.28 34.1503H588.5V114.891H423.28V34.1503Z" fill="white"/>
</mask>
<g mask="url(#mask0_29_1016)">
<path fill-rule="evenodd" clip-rule="evenodd" d="M439.899 50.5042C447.762 48.8401 455.91 50.2729 463.838 51.5908C471.768 52.9086 480 54.0969 487.753 51.9741C501.749 48.1422 512.375 34.0373 526.889 34.151C532.866 34.1972 538.499 36.743 544.322 38.0899C551.552 39.7633 559.085 39.5835 566.409 40.7771C573.735 41.9707 581.302 44.9091 585.441 51.0541C590.353 58.3465 589.006 68.6327 583.853 75.7572C578.699 82.883 570.446 87.2212 561.99 89.6797C556.091 91.3941 549.807 92.3854 544.703 95.797C539.54 99.2482 536.168 104.802 531.358 108.727C519.287 118.573 500.501 115.751 488.032 106.411C484.899 104.065 481.996 101.342 478.476 99.6249C464.16 92.6353 443.571 101.888 431.241 89.1708C418.721 76.2555 420.505 54.6071 439.899 50.5042Z" fill="#775298"/>
</g>
<path fill-rule="evenodd" clip-rule="evenodd" d="M435.97 300.628C435.97 300.628 449.086 328.67 450.621 323.478C452.152 318.283 451.645 305.812 450.824 304.031C449.998 302.251 444.636 294.385 444.636 294.385L435.97 300.628Z" fill="#FFB2A0"/>
<path fill-rule="evenodd" clip-rule="evenodd" d="M530.816 73.8687C532.03 75.4192 531.219 73.7537 532.593 75.9902C538.305 75.792 542.138 70.9714 542.138 70.9714C542.138 70.9714 551.204 71.2106 551.099 69.5954C550.996 67.9775 542.409 68.5815 542.409 68.5815C542.409 68.5815 551.493 65.7357 550.995 64.3148C550.499 62.8952 540.011 67.4236 540.011 67.4236C540.011 67.4236 550.594 60.8715 549.031 59.8207C547.468 58.7725 537.286 64.4919 537.286 64.4919C537.286 64.4919 546.135 57.2418 544.809 56.3073C543.485 55.3728 531.21 64.8091 531.21 64.8091C531.388 60.167 528.05 60.3295 528.05 60.3295L528.188 71.664C528.188 71.664 530.257 73.155 530.816 73.8687Z" fill="#FFC6B2"/>
<path fill-rule="evenodd" clip-rule="evenodd" d="M396.437 22.5696C394.497 22.9265 396.001 22.2537 393.483 23.0204C389.347 19.0867 389.896 12.9046 389.896 12.9046C389.896 12.9046 382.96 7.08079 384.11 5.94272C385.267 4.80201 391.285 10.9404 391.285 10.9404C391.285 10.9404 386.388 2.79552 387.705 2.06324C389.021 1.33096 393.852 11.6621 393.852 11.6621C393.852 11.6621 390.297 -0.245944 392.166 0.00387647C394.032 0.253697 397.84 11.2722 397.84 11.2722C397.84 11.2722 396.049 -0.00801971 397.659 0.170423C399.272 0.347544 402.172 15.5337 402.172 15.5337C405.128 11.9437 407.514 14.2767 407.514 14.2767L400.023 22.4943C400.023 22.4943 397.329 22.407 396.437 22.5696Z" fill="#FFC6B2"/>
<path fill-rule="evenodd" clip-rule="evenodd" d="M443.491 69.915C440.983 69.5039 434.917 73.5249 431.883 80.0783C430.184 83.7463 429.015 87.4725 430.964 93.4378C431.883 96.2439 433.804 96.5955 434.234 97.8526C434.776 99.444 432.98 104.46 432.98 104.46L440.14 107.344C440.605 103.898 441.132 100.431 444.654 98.9351C445.971 98.3747 447.381 98.0204 448.624 97.3093C451.978 95.3914 453.769 91.196 455.148 87.7606C456.176 85.195 449.781 70.9434 443.491 69.915Z" fill="#FFC6B2"/>
<path fill-rule="evenodd" clip-rule="evenodd" d="M434.968 167.309L422.973 162.509C422.973 162.509 387.373 228.357 387.521 246.627C387.669 264.895 436.416 301.473 436.416 301.473L444.637 294.386C444.637 294.386 429.587 268.21 421.542 258.981C413.495 249.75 434.968 167.309 434.968 167.309Z" fill="#FFB2A0"/>
<path fill-rule="evenodd" clip-rule="evenodd" d="M494.528 242.32C494.528 242.32 520.967 229.808 515.654 228.703C510.341 227.603 497.916 229.119 496.206 230.082C494.492 231.045 487.068 237.013 487.068 237.013L494.528 242.32Z" fill="#FFC6B2"/>
<path fill-rule="evenodd" clip-rule="evenodd" d="M446.75 166.738L428.553 173.342C428.553 173.342 410.35 253.2 417.299 265.737C424.246 278.28 443.762 269.98 471.556 254.849L494.837 242.173L487.066 237.014C487.066 237.014 459.976 242.309 452.368 247.589C452.368 247.589 456.338 236.368 461.632 220.529C466.925 204.688 470.576 188.519 446.75 166.738Z" fill="#FFC6B2"/>
<path fill-rule="evenodd" clip-rule="evenodd" d="M424.351 112.333C424.351 107.028 426.064 103.19 431.383 103.19C436.702 103.19 444.056 105.05 444.056 110.357C444.056 115.666 439.864 124.282 434.542 124.282C429.223 124.282 424.351 117.642 424.351 112.333Z" fill="#FFC6B2"/>
<path fill-rule="evenodd" clip-rule="evenodd" d="M428.553 102.43C428.553 102.43 412.012 84.5752 408.703 67.0839C405.393 49.5951 399.771 21.2148 399.771 21.2148L393.485 23.0204C393.485 23.0204 390.506 61.8059 393.485 67.7448C396.461 73.6849 411.01 113.231 415.44 123.616L428.553 102.43Z" fill="#FFC6B2"/>
<path fill-rule="evenodd" clip-rule="evenodd" d="M446.323 116.346C446.323 116.346 447.595 110.791 468.512 103.243C489.429 95.6952 528.89 71.23 528.89 71.23L532.827 75.7228C532.827 75.7228 511.386 100.426 498.912 104.759C486.438 109.093 459.943 126.177 457.217 127.544C453.095 129.613 453.145 132.215 446.323 116.346Z" fill="#FFC6B2"/>
<path fill-rule="evenodd" clip-rule="evenodd" d="M428.551 102.43C428.551 102.43 411.745 107.863 411.745 133.369C411.745 133.369 411.756 168.303 415.717 174.659C415.717 174.659 422.156 176.304 430.184 174.659C438.602 172.932 446.749 166.738 446.749 166.738L459.969 127.152L458.388 108.604L440.413 105.142C440.413 105.142 445.569 129.177 426.913 118.844C423.288 116.836 432.247 103.201 432.247 103.201L428.551 102.43Z" fill="#22343D"/>
<path fill-rule="evenodd" clip-rule="evenodd" d="M414.332 123.175L406.051 105.966C406.051 105.966 407.238 95.5267 422.441 91.786C422.441 91.786 423.978 97.0481 425.664 99.0586C427.348 101.068 432.254 103.206 432.254 103.206L414.332 123.175Z" fill="#22343D"/>
<path fill-rule="evenodd" clip-rule="evenodd" d="M445.641 130.092L471.974 124.708C471.974 124.708 476.552 115.247 465.696 103.992C465.696 103.992 445.156 105.229 442.498 105.45C439.88 105.666 441.677 107.677 441.677 107.677L445.641 130.092Z" fill="#22343D"/>
<path fill-rule="evenodd" clip-rule="evenodd" d="M415.677 166.15C415.677 166.15 390.77 212.081 386.655 220.288C386.655 220.288 460.136 253.955 489.964 213.43C489.964 213.43 472.997 177.61 446.766 163.973L435.45 160.593L416.119 165.929" fill="#22343D"/>
<path fill-rule="evenodd" clip-rule="evenodd" d="M454.183 87.3263C454.183 87.3263 457.021 84.4963 458.766 86.4552C460.511 88.4141 452.438 91.2441 452.438 91.2441L454.183 87.3263Z" fill="#FFC6B2"/>
<path fill-rule="evenodd" clip-rule="evenodd" d="M506.08 48.73C506.108 48.8278 505.012 49.301 502.919 49.7967C500.832 50.2976 497.735 50.7523 493.888 50.8303C490.044 50.907 485.472 50.5659 480.468 49.8892C475.46 49.227 470.02 48.2541 464.297 47.6315C458.583 47.0222 453.088 46.9112 448.222 47.695C443.355 48.4656 439.142 50.0557 435.922 51.9129C432.702 53.7845 430.461 55.8611 429.085 57.4327C427.702 59.0056 427.079 60.0102 426.938 59.9256C426.862 59.8859 427.278 58.7545 428.531 56.9912C429.777 55.2332 431.975 52.9135 435.254 50.8158C438.53 48.7313 442.884 46.9402 447.944 46.0441C453.01 45.1347 458.677 45.2047 464.49 45.826C470.309 46.4591 475.756 47.4875 480.705 48.233C485.653 48.993 490.126 49.4583 493.892 49.5455C501.442 49.7557 506.011 48.4193 506.08 48.73Z" fill="#775298"/>
<path fill-rule="evenodd" clip-rule="evenodd" d="M439.733 85.7198C439.725 85.8308 438.917 85.9088 437.683 85.5004C437.379 85.3933 437.018 85.2532 436.683 84.9466C436.517 84.7932 436.363 84.5897 436.269 84.3451C436.134 84.0028 436.145 83.6142 436.279 83.3181C436.318 83.2586 436.316 83.1172 436.394 83.1145L436.634 83.1066C436.788 83.0855 436.969 83.1357 437.147 83.1687C437.473 83.2309 437.577 83.2216 437.809 83.2375C438.216 83.2467 438.637 83.2044 439.059 83.1119C440.782 82.7497 441.935 81.4993 442.451 80.4709C442.993 79.436 443.041 78.6574 443.186 78.6667C443.288 78.6535 443.489 79.4809 443.041 80.73C442.813 81.342 442.417 82.0439 441.777 82.6598C441.141 83.2745 440.259 83.7794 439.259 83.9975C438.759 84.1085 438.257 84.1508 437.773 84.1257C437.563 84.1151 437.231 84.0728 437.135 84.0517C437.046 84.0372 437.057 84.0173 437.039 84.0279C437.029 84.0385 437.023 84.0557 437.025 84.0808C437.06 84.1997 437.125 84.3134 437.217 84.4152C437.401 84.6227 437.669 84.7774 437.93 84.9069C438.997 85.429 439.753 85.5837 439.733 85.7198Z" fill="#FF7B5B"/>
<path fill-rule="evenodd" clip-rule="evenodd" d="M433.827 86.0258L443.527 89.8378C443.527 89.8378 435.002 95.7013 433.827 86.0258Z" fill="white"/>
<path fill-rule="evenodd" clip-rule="evenodd" d="M447.671 87.86C447.327 88.513 446.258 88.6267 445.284 88.1152C444.31 87.6049 443.8 86.6612 444.143 86.0095C444.488 85.3566 445.557 85.2416 446.531 85.7531C447.505 86.2646 448.016 87.2071 447.671 87.86Z" fill="#FFB2A0"/>
<path fill-rule="evenodd" clip-rule="evenodd" d="M436.843 82.1345C436.549 82.8113 435.493 83.0069 434.483 82.5707C433.473 82.1345 432.892 81.2331 433.186 80.5563C433.479 79.8795 434.536 79.6839 435.546 80.1201C436.556 80.5563 437.137 81.4578 436.843 82.1345Z" fill="#FFB2A0"/>
<path fill-rule="evenodd" clip-rule="evenodd" d="M433.25 96.6369C433.25 96.6369 436.651 99.4775 440.198 98.5628C440.198 98.5628 438.975 100.392 434.267 99.7207C434.267 99.7207 434.658 97.7049 433.25 96.6369Z" fill="#FFA192"/>
<path fill-rule="evenodd" clip-rule="evenodd" d="M446.738 81.7835C446.738 82.2064 446.394 82.5501 445.97 82.5501C445.546 82.5501 445.201 82.2064 445.201 81.7835C445.201 81.3605 445.546 81.0168 445.97 81.0168C446.394 81.0168 446.738 81.3605 446.738 81.7835Z" fill="#22343D"/>
<path fill-rule="evenodd" clip-rule="evenodd" d="M440.45 79.5238C440.45 79.9468 440.105 80.2905 439.681 80.2905C439.257 80.2905 438.914 79.9468 438.914 79.5238C438.914 79.1009 439.257 78.7572 439.681 78.7572C440.105 78.7572 440.45 79.1009 440.45 79.5238Z" fill="#22343D"/>
<path fill-rule="evenodd" clip-rule="evenodd" d="M449.208 79.7414C448.97 79.8419 448.512 79.288 447.818 78.8399C447.138 78.372 446.449 78.1618 446.45 77.9054C446.427 77.6596 447.39 77.46 448.324 78.0852C449.259 78.7064 449.445 79.6674 449.208 79.7414Z" fill="#775298"/>
<path fill-rule="evenodd" clip-rule="evenodd" d="M438.125 76.0219C438.109 75.7826 438.934 75.4813 440.04 75.5103C441.165 75.5341 441.996 76.0787 441.88 76.3061C441.774 76.5361 440.991 76.4369 440.004 76.4184C439.011 76.3893 438.141 76.2823 438.125 76.0219Z" fill="#775298"/>
<path fill-rule="evenodd" clip-rule="evenodd" d="M441.588 312.022C441.588 312.022 445.623 326.308 449.789 325.138C453.956 323.97 450.823 304.032 450.823 304.032L446.666 297.478C446.666 297.478 450.571 330.852 441.588 312.022Z" fill="#22343D"/>
<path fill-rule="evenodd" clip-rule="evenodd" d="M492.471 232.821C492.471 232.821 495.405 229.627 498.961 229.096C502.52 228.563 515.235 227.055 517.102 228.741C518.97 230.426 506.796 236.077 506.796 236.077C506.796 236.077 511.038 233.38 509.277 232.378C506.164 230.603 492.471 232.821 492.471 232.821Z" fill="#22343D"/>
<path fill-rule="evenodd" clip-rule="evenodd" d="M487.425 236.646L491.405 244.707L493.577 243.504L488.269 235.563L487.425 236.646Z" fill="#22343D"/>
<path fill-rule="evenodd" clip-rule="evenodd" d="M442.91 291.153L433.138 299.938L436.034 302.345L444.237 293.44L442.91 291.153Z" fill="#22343D"/>
<path fill-rule="evenodd" clip-rule="evenodd" d="M238.613 203.699C235.834 196.821 234.766 189.162 230.619 183.007C224.652 174.149 213.19 169.754 208.348 160.237C206.292 156.195 205.646 151.572 205.625 147.039C205.585 138.072 208.277 128.539 215.221 122.841C223.2 116.293 235.171 116.384 244.517 120.783C253.859 125.182 260.998 133.167 267.067 141.508C273.138 149.847 278.452 158.797 285.521 166.312C290.762 171.885 296.978 176.691 300.926 183.238C311.749 201.187 300.613 223.897 281.507 230.375C264.718 236.065 244.421 218.081 238.613 203.699Z" fill="#22343D"/>
<path fill-rule="evenodd" clip-rule="evenodd" d="M214.697 330.288C216.359 331.651 214.546 330.707 216.963 332.277C216.424 338.301 210.838 342.096 210.838 342.096C210.838 342.096 210.602 351.685 208.808 351.489C207.01 351.294 208.161 342.254 208.161 342.254C208.161 342.254 204.484 351.7 202.928 351.099C201.374 350.5 207.003 339.661 207.003 339.661C207.003 339.661 199.113 350.493 198.029 348.785C196.946 347.079 203.889 336.626 203.889 336.626C203.889 336.626 195.316 345.591 194.348 344.139C193.38 342.692 204.578 330.225 204.578 330.225C199.395 330.168 199.762 326.649 199.762 326.649L212.386 327.396C212.386 327.396 213.933 329.659 214.697 330.288Z" fill="#FFC6B2"/>
<path fill-rule="evenodd" clip-rule="evenodd" d="M335.293 149.428C337.453 149.806 335.777 149.093 338.579 149.905C343.183 145.734 342.572 139.179 342.572 139.179C342.572 139.179 350.293 133.004 349.013 131.797C347.725 130.587 341.027 137.095 341.027 137.095C341.027 137.095 346.476 128.459 345.011 127.682C343.548 126.906 338.171 137.861 338.171 137.861C338.171 137.861 342.127 125.234 340.046 125.498C337.971 125.764 333.732 137.447 333.732 137.447C333.732 137.447 335.725 125.487 333.932 125.676C332.138 125.863 329.236 141.533 329.236 141.533C325.008 138.102 322.049 140.299 322.049 140.299L331.302 149.348C331.302 149.348 334.3 149.256 335.293 149.428Z" fill="#FFC6B2"/>
<path fill-rule="evenodd" clip-rule="evenodd" d="M282.445 201.801C286.351 201.193 298.26 208.891 295.229 224.524C294.976 225.836 293.258 228.726 292.83 229.921C292.289 231.434 296.502 236.974 296.502 236.974L285.626 240.439C285.162 237.163 285.943 232.374 282.428 230.95C281.114 230.418 279.706 230.08 278.466 229.405C275.117 227.581 273.329 223.59 271.954 220.324C270.927 217.883 270.145 215.258 270.174 212.609C270.246 205.939 276.168 202.779 282.445 201.801Z" fill="#FFC6B2"/>
<path fill-rule="evenodd" clip-rule="evenodd" d="M304.224 244.615C304.224 238.988 302.435 236.84 296.514 236.84C290.593 236.84 282.777 238.988 282.777 244.615C282.777 250.243 286.958 257.286 292.882 257.286C298.801 257.286 304.224 250.243 304.224 244.615Z" fill="#FFC6B2"/>
<path fill-rule="evenodd" clip-rule="evenodd" d="M299.549 234.113C299.549 234.113 317.96 215.18 321.643 196.632C325.327 178.086 331.584 147.991 331.584 147.991L338.581 149.905C338.581 149.905 341.897 191.034 338.581 197.333C335.268 203.632 316.486 247.375 316.855 258.572L299.549 234.113Z" fill="#FFC6B2"/>
<path fill-rule="evenodd" clip-rule="evenodd" d="M266.73 243.28C266.73 243.28 260.47 244.33 250.895 266.027C241.321 287.723 211.862 328.115 211.862 328.115L216.65 332.512C216.65 332.512 245.372 311.168 250.895 298.221C256.417 285.274 263.414 269.177 266.73 269.875C270.043 270.577 284.037 251.328 266.73 243.28Z" fill="#FFC6B2"/>
<path fill-rule="evenodd" clip-rule="evenodd" d="M316.02 261.464L324.593 237.864C324.593 237.864 323.27 226.795 306.35 222.827L296.765 236.601L316.02 261.464Z" fill="#FF7B5B"/>
<path fill-rule="evenodd" clip-rule="evenodd" d="M269.589 241.469C269.589 241.469 259.475 242.319 251.277 260.279C251.277 260.279 260.293 272.693 266.888 273.112C266.888 273.112 291.384 252.228 269.589 241.469Z" fill="#FF7B5B"/>
<path fill-rule="evenodd" clip-rule="evenodd" d="M297.377 454.447C297.377 454.447 282.778 484.183 281.071 478.678C279.367 473.17 279.93 459.944 280.844 458.057C281.763 456.168 287.731 447.827 287.731 447.827L297.377 454.447Z" fill="#FFC6B2"/>
<path fill-rule="evenodd" clip-rule="evenodd" d="M298.494 313.074L311.845 307.982C311.845 307.982 351.469 377.81 351.304 397.184C351.14 416.555 296.884 455.344 296.884 455.344L287.732 447.827C287.732 447.827 313.449 410.114 322.403 400.327C326.881 395.433 294.825 371.447 289.969 348.369C285.114 325.29 298.494 313.074 298.494 313.074Z" fill="#654287"/>
<path fill-rule="evenodd" clip-rule="evenodd" d="M218.218 438.869C218.218 438.869 190.908 458.947 192.044 453.313C193.183 447.672 200.058 436.162 201.783 434.881C203.509 433.603 212.833 428.787 212.833 428.787L218.218 438.869Z" fill="#FFC6B2"/>
<path fill-rule="evenodd" clip-rule="evenodd" d="M262.169 337.801L301.67 314.967C301.67 314.967 303.238 394.285 293.755 411.435C284.273 428.586 217.347 439.451 217.347 439.451L212.835 428.787C212.835 428.787 254.125 404.249 266.802 399.447C279.48 394.642 262.169 337.801 262.169 337.801Z" fill="#775298"/>
<path fill-rule="evenodd" clip-rule="evenodd" d="M285.694 299.347C285.694 299.347 256.609 309.619 262.17 337.801C267.729 365.982 276.996 371.265 276.996 371.265L293.676 343.966L310.422 308.215L293.676 306.096L285.694 299.347Z" fill="#775298"/>
<path fill-rule="evenodd" clip-rule="evenodd" d="M299.549 234.113C299.549 234.113 320.963 246.083 320.963 273.131C320.963 273.131 318.243 303.967 313.834 310.705C313.834 310.705 306.667 312.451 297.731 310.705C288.362 308.875 279.295 302.307 279.295 302.307L271.978 264.554L266.285 242.51L269.371 241.495L285.476 239.731C285.476 239.731 283.162 263.727 301.145 251.811C304.932 249.301 296.43 236.788 296.43 236.788L299.549 234.113Z" fill="#FF7B5B"/>
<path fill-rule="evenodd" clip-rule="evenodd" d="M312.655 131.903L357.552 158.027L382.808 110.445L340.716 87.1203L312.655 131.903Z" fill="white"/>
<path fill-rule="evenodd" clip-rule="evenodd" d="M375.117 359.674L407.228 339.847L380.699 293.659L351.346 312.644L375.117 359.674Z" fill="white"/>
<path fill-rule="evenodd" clip-rule="evenodd" d="M217.013 162.859C217.097 162.783 218.089 163.681 219.656 165.511C221.217 167.345 223.347 170.132 225.484 173.894C227.63 177.64 229.753 182.393 231.269 187.911C232.838 193.387 233.89 199.542 236.302 205.472C237.554 208.401 239.072 211.128 240.878 213.539C242.7 215.934 244.721 218.036 246.801 219.869C251.053 223.438 255.507 225.892 259.476 227.311C263.44 228.749 266.837 229.394 269.198 229.625C271.557 229.886 272.89 229.924 272.892 230.079C272.898 230.175 271.569 230.377 269.147 230.331C266.726 230.313 263.202 229.851 259.051 228.524C254.898 227.216 250.206 224.794 245.719 221.147C243.518 219.273 241.379 217.103 239.452 214.608C237.541 212.1 235.927 209.231 234.616 206.161C232.104 199.963 231.111 193.753 229.65 188.349C228.254 182.927 226.314 178.261 224.353 174.508C222.403 170.743 220.469 167.889 219.097 165.944C217.718 164.002 216.909 162.95 217.013 162.859Z" fill="#22343D"/>
<path fill-rule="evenodd" clip-rule="evenodd" d="M272.174 132.295C272.504 132.245 272.825 136.653 275.298 143.173C276.533 146.421 278.37 150.158 281.008 153.904C282.327 155.779 283.844 157.627 285.561 159.469C287.267 161.318 289.125 163.196 290.881 165.303C294.402 169.555 296.824 174.151 299.105 178.208C301.37 182.304 303.173 186.201 304.09 189.686C305.047 193.161 305.103 196.153 304.799 198.137C304.482 200.13 303.986 201.14 303.903 201.112C303.746 201.071 304.003 200.004 304.093 198.073C304.171 196.145 303.925 193.334 302.855 190.05C301.821 186.752 299.962 183.035 297.642 179.026C295.286 175.018 292.842 170.515 289.479 166.462C287.79 164.435 285.959 162.563 284.243 160.667C282.517 158.781 280.948 156.817 279.625 154.852C276.969 150.917 275.196 146.995 274.085 143.604C272.95 140.215 272.466 137.355 272.237 135.384C272.01 133.409 272.071 132.304 272.174 132.295Z" fill="#22343D"/>
<path fill-rule="evenodd" clip-rule="evenodd" d="M285.938 218.793C285.921 218.666 286.652 218.55 287.343 217.741C287.502 217.554 287.662 217.282 287.66 217.124C287.656 216.953 287.536 216.657 287.331 216.486C287.118 216.296 286.88 216.204 286.568 216.235C286.244 216.259 285.851 216.419 285.336 216.496C284.21 216.645 283.331 216.011 282.754 215.496C282.16 214.956 281.707 214.407 281.369 213.916C280.696 212.926 280.486 212.21 280.59 212.158C280.709 212.094 281.114 212.686 281.874 213.516C282.253 213.929 282.731 214.402 283.296 214.858C283.852 215.301 284.533 215.704 285.213 215.597C285.574 215.551 285.994 215.383 286.505 215.348C287.026 215.297 287.605 215.536 287.923 215.893C288.261 216.258 288.451 216.687 288.411 217.196C288.31 217.717 288.033 217.96 287.804 218.188C286.814 219.052 285.906 218.911 285.938 218.793Z" fill="#FF7B5B"/>
<path fill-rule="evenodd" clip-rule="evenodd" d="M291.244 219.538L282.621 222.665C282.621 222.665 289.938 229.049 291.244 219.538Z" fill="white"/>
<path fill-rule="evenodd" clip-rule="evenodd" d="M281.762 219.005C282.106 219.658 281.596 220.602 280.622 221.112C279.648 221.624 278.58 221.51 278.235 220.857C277.891 220.206 278.401 219.262 279.375 218.75C280.349 218.239 281.417 218.352 281.762 219.005Z" fill="#FFB2A0"/>
<path fill-rule="evenodd" clip-rule="evenodd" d="M291.984 213.777C292.266 214.459 291.67 215.35 290.653 215.769C289.636 216.189 288.582 215.976 288.3 215.294C288.018 214.612 288.614 213.721 289.632 213.302C290.648 212.883 291.702 213.095 291.984 213.777Z" fill="#FFB2A0"/>
<path fill-rule="evenodd" clip-rule="evenodd" d="M282.877 231.179C282.877 231.179 285.762 231.765 289.44 230.849C289.44 230.849 287.627 232.605 284.665 233.014C284.665 233.014 284.001 231.79 282.877 231.179Z" fill="#FFA192"/>
<path fill-rule="evenodd" clip-rule="evenodd" d="M285.824 211.846C286.147 212.119 286.187 212.603 285.912 212.926C285.638 213.248 285.154 213.288 284.83 213.014C284.506 212.742 284.467 212.258 284.741 211.934C285.015 211.612 285.5 211.572 285.824 211.846Z" fill="#22343D"/>
<path fill-rule="evenodd" clip-rule="evenodd" d="M280.029 215.171C280.352 215.445 280.392 215.928 280.118 216.251C279.845 216.573 279.36 216.613 279.035 216.339C278.712 216.066 278.672 215.583 278.946 215.26C279.221 214.937 279.706 214.897 280.029 215.171Z" fill="#22343D"/>
<path fill-rule="evenodd" clip-rule="evenodd" d="M285.857 208.646C285.78 208.892 285.061 208.883 284.269 209.122C283.472 209.336 282.866 209.725 282.67 209.557C282.467 209.417 282.936 208.555 284.019 208.249C285.099 207.938 285.954 208.419 285.857 208.646Z" fill="#22343D"/>
<path fill-rule="evenodd" clip-rule="evenodd" d="M275.848 214.677C275.655 214.534 275.958 213.712 276.695 212.889C277.44 212.049 278.394 211.769 278.493 212.003C278.601 212.231 278.019 212.764 277.365 213.503C276.703 214.239 276.057 214.834 275.848 214.677Z" fill="#22343D"/>
<path fill-rule="evenodd" clip-rule="evenodd" d="M272.596 221.063C272.596 221.063 269.83 218.746 268.502 220.842C267.176 222.939 274.476 224.042 274.476 224.042L272.596 221.063Z" fill="#FFC6B2"/>
<path fill-rule="evenodd" clip-rule="evenodd" d="M206.096 432.344C206.096 432.344 202.131 434.064 201.097 435.096C200.062 436.127 190.58 452.462 191.788 454.525C192.995 456.589 202.503 449.584 202.503 449.584C202.503 449.584 194.547 451.087 206.096 432.344Z" fill="#775298"/>
<path fill-rule="evenodd" clip-rule="evenodd" d="M283.467 453.945C283.467 453.945 280.651 456.981 280.217 458.375C279.782 459.767 279.004 478.627 281.036 479.893C283.066 481.161 288.616 470.754 288.616 470.754C288.616 470.754 281.981 475.938 283.467 453.988" fill="#775298"/>
</svg>
